<svg width="24" height="24" viewBox="0 0 24 24" fill="none" xmlns="http://www.w3.org/2000/svg">
<path d="M12.5314 17.6877H10.8918V23.1802H12.5314V17.6877Z" fill="#212529"/>
<path d="M14.8541 22.3605H8.54187V24H14.8541V22.3605Z" fill="#212529"/>
<path d="M9.94637 13.7994L4.71354 1.63953H1V0H5.7929L11.452 13.1518L9.94637 13.7994Z" fill="#212529"/>
<path d="M11.7089 18.5375C10.6022 18.5375 9.52835 18.3216 8.51457 17.8953C7.52539 17.48 6.63731 16.8843 5.87766 16.1219C4.31737 14.5644 3.45935 12.4958 3.45935 10.2988V5.18624C3.45935 4.65066 3.89383 4.21619 4.42941 4.21619H18.9666C19.5022 4.21619 19.9366 4.65066 19.9366 5.18624V10.2551C19.9366 12.4521 19.0868 14.5234 17.5457 16.0864C15.999 17.6576 13.9387 18.5266 11.7444 18.5348C11.7335 18.5375 11.7226 18.5375 11.7089 18.5375ZM5.09888 5.85572V10.2988C5.09888 12.0586 5.78748 13.7145 7.03626 14.966C8.2823 16.2121 9.94096 16.898 11.7089 16.898C11.7199 16.898 11.7281 16.898 11.739 16.898C15.3541 16.8816 18.2971 13.9031 18.2971 10.2551V5.85572H5.09888Z" fill="#212529"/>
<path d="M18.2971 9.65691V5.85593H14.4114L14.4196 5.02796C14.4305 3.80651 14.9224 2.66431 15.805 1.80629C16.6821 0.95373 17.838 0.497394 19.0567 0.524719C20.2563 0.549312 21.3794 1.04117 22.2183 1.91012C23.0572 2.77634 23.5135 3.91308 23.5026 5.11541C23.4944 6.2904 23.0435 7.39709 22.2374 8.23598C21.4286 9.07761 20.3328 9.56946 19.1524 9.62138L18.2971 9.65691ZM16.1848 4.2164H18.9638C19.4994 4.2164 19.9339 4.65087 19.9339 5.18645V7.8179C21.0679 7.42441 21.8521 6.36965 21.863 5.09901C21.8767 3.51413 20.6006 2.19704 19.0212 2.16425C18.2424 2.14785 17.5074 2.44024 16.9445 2.98402C16.5865 3.33378 16.3296 3.7546 16.1848 4.2164Z" fill="#212529"/>
</svg>
