<svg width="24" height="24" viewBox="0 0 24 24" fill="none" xmlns="http://www.w3.org/2000/svg">
<g clip-path="url(#clip0_57_736)">
<path fill-rule="evenodd" clip-rule="evenodd" d="M10.2343 0.234312C10.5467 -0.0781045 11.0533 -0.0781045 11.3657 0.234316L11.4036 0.272232C12.5733 1.44194 12.4532 3.37216 11.1474 4.38776C10.6655 4.76252 10.5604 5.44844 10.9078 5.95032L11.4578 6.74464C11.7092 7.10788 11.6186 7.60628 11.2554 7.85776C10.8921 8.10924 10.3937 8.01864 10.1422 7.65536L9.59236 6.86108C8.76152 5.661 9.01292 4.02088 10.1651 3.12479C10.7112 2.70005 10.7614 1.8928 10.2722 1.4036L10.2343 1.36568C9.92188 1.05326 9.92188 0.546732 10.2343 0.234312ZM15.0343 0.234312C15.3467 -0.0781045 15.8533 -0.0781045 16.1657 0.234316L16.2036 0.272232C17.3733 1.44194 17.2532 3.37216 15.9474 4.38776C15.4655 4.76252 15.3604 5.44844 15.7078 5.95032L16.2578 6.74464C16.5092 7.10788 16.4186 7.60628 16.0554 7.85776C15.6921 8.10924 15.1937 8.01864 14.9422 7.65536L14.3924 6.86108C13.5615 5.661 13.8129 4.02088 14.9651 3.12479C15.5112 2.70005 15.5614 1.8928 15.0722 1.4036L15.0343 1.36568C14.7219 1.05326 14.7219 0.546732 15.0343 0.234312ZM0 9.6C0 9.15816 0.358172 8.8 0.8 8.8H20.6207C22.487 8.8 24 10.313 24 12.1793C24 14.8885 21.8542 17.0965 19.1694 17.1965C18.1511 19.5297 16.2683 21.3991 13.9257 22.4H18.8C19.2418 22.4 19.6 22.7582 19.6 23.2C19.6 23.6418 19.2418 24 18.8 24H2C1.55817 24 1.2 23.6418 1.2 23.2C1.2 22.7582 1.55817 22.4 2 22.4H6.07428C2.50284 20.8741 0 17.3293 0 13.2V9.6ZM19.7301 15.5174C21.2582 15.1751 22.4 13.8106 22.4 12.1793C22.4 11.1966 21.6034 10.4 20.6207 10.4H20V13.2C20 13.9977 19.9066 14.7736 19.7301 15.5174ZM18.4 10.4H1.6V13.2C1.6 17.8392 5.3608 21.6 10 21.6C14.6392 21.6 18.4 17.8392 18.4 13.2V10.4ZM3.60808 14.4295C4.0336 14.3106 4.47496 14.5592 4.59384 14.9847C5.06892 16.6852 6.37644 18.0347 8.04112 18.5608C8.4624 18.6939 8.696 19.1434 8.56284 19.5647C8.42968 19.986 7.98024 20.2196 7.55896 20.0864C5.37716 19.3969 3.6728 17.6343 3.05285 15.4153C2.93396 14.9897 3.18254 14.5484 3.60808 14.4295Z" fill="#212529"/>
</g>
<defs>
<clipPath id="clip0_57_736">
<rect width="24" height="24" fill="white"/>
</clipPath>
</defs>
</svg>
