<svg width="24" height="24" viewBox="0 0 24 24" fill="none" xmlns="http://www.w3.org/2000/svg">
<path d="M22.3983 11.149C22.2208 10.9465 22.0022 10.7841 21.757 10.6726C21.5118 10.5612 21.2457 10.5032 20.9764 10.5027H16.366L22.7323 3.2316L21.515 2.1544L14.2224 10.5027H10.9908L19.5007 1.0772L18.2942 0L8.83638 10.5027H3.89204C3.62155 10.5032 3.35431 10.5617 3.10827 10.674C2.86223 10.7864 2.64308 10.9501 2.46554 11.1542C2.28801 11.3582 2.15619 11.5979 2.07895 11.8572C2.00171 12.1164 1.98083 12.3891 2.01771 12.6571C2.43235 15.686 3.93291 18.4613 6.24033 20.4668V24H18.6281V20.4668C20.9355 18.4613 22.4361 15.686 22.8507 12.6571C22.8885 12.388 22.8676 12.1139 22.7895 11.8536C22.7114 11.5933 22.578 11.3529 22.3983 11.149ZM17.3139 19.3896L17.0123 19.6373V22.3196H7.85613V19.6697L7.55451 19.3896C5.41328 17.6289 4.00716 15.1317 3.61197 12.3878C3.60745 12.351 3.61089 12.3137 3.62204 12.2784C3.63319 12.2431 3.65179 12.2106 3.6766 12.1831C3.70208 12.1536 3.73345 12.1297 3.76869 12.113C3.80394 12.0963 3.84228 12.0872 3.88126 12.0862H20.9764C21.0154 12.0872 21.0537 12.0963 21.089 12.113C21.1242 12.1297 21.1556 12.1536 21.1811 12.1831C21.2059 12.2106 21.2245 12.2431 21.2356 12.2784C21.2468 12.3137 21.2502 12.351 21.2457 12.3878C20.8533 15.1301 19.4512 17.6271 17.3139 19.3896Z" fill="#212529"/>
</svg>
