<svg width="91" height="244" viewBox="0 0 91 244" fill="none" xmlns="http://www.w3.org/2000/svg">
<path d="M17.4676 225.382C17.4676 225.382 31.5863 239.623 47.6711 239.259L90.8487 107.811L49.3243 106.177L17.4676 225.382Z" fill="#59221D"/>
<path d="M24.5541 177.526L72.268 224.54C73.7368 222.744 84.3945 209.206 84.2905 191.361L51.8473 157.824L69.1287 139.572C81.15 126.748 86.7344 120.225 90.8487 107.811L46.3756 95.3026L19.6689 142.092C16.4605 147.711 15.2001 154.231 16.0836 160.639C16.9671 167.048 19.945 172.984 24.5541 177.526Z" fill="#A74602"/>
<path d="M61.2948 100.923C61.5126 102.549 64.3883 121.758 79.1392 128.455C80.5362 126.775 81.7959 125.159 82.9442 123.549C67.749 115.46 62.2179 99.9892 62.2179 99.9892C61.9184 100.311 61.6107 100.622 61.2948 100.923Z" fill="#59221D"/>
<path d="M52.3843 157.824L47.0462 152.612" stroke="#59221D" stroke-width="5" stroke-linecap="round" stroke-linejoin="round"/>
<path d="M3.00001 243.681V244H45.7408L47.9297 237.393C28.5262 237.505 17.8611 225.169 17.8611 225.169L6.29021 236.104C4.23165 238.094 3.04816 240.819 3.00001 243.681Z" fill="white" stroke="#592D29" stroke-width="5" stroke-linecap="round" stroke-linejoin="round"/>
<path d="M46.5104 241.678H3.26232" stroke="#592D29" stroke-width="5" stroke-linecap="round" stroke-linejoin="round"/>
<path d="M12.2755 241.378C12.2849 239.934 11.9644 238.506 11.3385 237.203C10.7126 235.901 9.79778 234.758 8.66355 233.863" stroke="#592D29" stroke-width="5" stroke-linecap="round" stroke-linejoin="round"/>
<path d="M20.3693 231.428L15.5583 226.852C15.3467 226.651 15.0647 226.54 14.7725 226.543C14.4802 226.547 14.2009 226.664 13.9942 226.871C13.7938 227.071 13.677 227.34 13.6674 227.624C13.6578 227.907 13.756 228.183 13.9423 228.397" stroke="#592D29" stroke-width="5" stroke-linecap="round" stroke-linejoin="round"/>
<path d="M18.3585 233.169L13.5488 228.593C13.3372 228.392 13.0552 228.281 12.763 228.285C12.4707 228.288 12.1914 228.405 11.9847 228.612C11.783 228.812 11.6653 229.081 11.6556 229.365C11.6459 229.648 11.7451 229.925 11.9327 230.138" stroke="#592D29" stroke-width="5" stroke-linecap="round" stroke-linejoin="round"/>
<path d="M88.4519 243.984L90.8599 244L90.9193 197.725L84.2868 191.666C84.585 211.055 72.3484 224.491 72.3484 224.491L85.1963 242.604C85.6216 243.036 86.128 243.381 86.6866 243.618C87.2452 243.855 87.8451 243.979 88.4519 243.984Z" fill="white" stroke="#592D29" stroke-width="5" stroke-linecap="round" stroke-linejoin="round"/>
<path d="M88.3442 232.698C86.9427 233.052 85.6405 233.721 84.5369 234.655C83.4332 235.588 82.5572 236.76 81.9754 238.083" stroke="#592D29" stroke-width="5" stroke-linecap="round" stroke-linejoin="round"/>
<path d="M88.3999 195.425V243.984" stroke="#592D29" stroke-width="5" stroke-linecap="round" stroke-linejoin="round"/>
<path d="M78.9215 224.258L74.582 229.286C74.3899 229.506 74.2923 229.794 74.3104 230.085C74.3285 230.377 74.4607 230.65 74.6785 230.845C74.8888 231.035 75.1635 231.139 75.4472 231.134C75.7309 231.13 76.0023 231.018 76.2066 230.822" stroke="#592D29" stroke-width="5" stroke-linecap="round" stroke-linejoin="round"/>
<path d="M80.7603 226.178L76.4207 231.206C76.2286 231.427 76.1311 231.714 76.1492 232.006C76.1672 232.297 76.2994 232.57 76.5172 232.766C76.7276 232.956 77.0023 233.059 77.2859 233.055C77.5696 233.05 77.8411 232.939 78.0454 232.742" stroke="#592D29" stroke-width="5" stroke-linecap="round" stroke-linejoin="round"/>
<path d="M40.0215 57.8528V94.9601C40.0212 96.2108 39.5239 97.4102 38.6389 98.2946C37.7539 99.179 36.5537 99.676 35.3021 99.6764C34.0505 99.6764 32.8501 99.1795 31.965 98.295C31.0799 97.4105 30.5827 96.2109 30.5827 94.9601V73.9926" stroke="#59221D" stroke-width="5" stroke-linecap="round" stroke-linejoin="round"/>
<path d="M22.3726 66.233L26.0563 75.8697C29.7066 85.2108 38.4476 91.3591 48.4816 91.3591L38.0405 109.908C38.0405 109.908 53.6564 109.198 62.2179 99.9855C62.2179 99.9855 69.6423 120.748 90.9093 126.744L90.8487 107.806V52.7506C90.8487 37.0003 78.0677 24.2351 62.307 24.2425H62.2439C57.2415 24.2424 52.4284 26.1542 48.7909 29.5861C45.1534 33.0179 42.9669 37.71 42.6795 42.7009L42.1697 51.5486L41.9878 54.7304C41.9878 54.7304 41.6091 67.2544 22.3726 66.233Z" fill="#98C8DB"/>
<path d="M87.7787 39.8754V125.722C87.9557 125.789 88.1339 125.855 88.3158 125.918V40.987C88.2811 40.9141 88.2477 40.8411 88.2143 40.7682C88.1301 40.5889 88.046 40.4096 87.9569 40.2327C87.9 40.1115 87.8406 39.9941 87.7787 39.8754Z" fill="#CEE4ED"/>
<path d="M84.5157 34.8338V124.339C84.6927 124.423 84.8709 124.507 85.0515 124.586V35.5213C84.8758 35.2913 84.6915 35.0626 84.5157 34.8338Z" fill="#CEE4ED"/>
<path d="M81.2527 31.4246V122.595C81.4292 122.701 81.6079 122.806 81.7885 122.909V31.9118C81.6116 31.7424 81.4334 31.5841 81.2527 31.4246Z" fill="#CEE4ED"/>
<path d="M77.9885 28.9243V120.431C78.1654 120.555 78.3448 120.69 78.5243 120.818V29.2853C78.3461 29.1633 78.1675 29.043 77.9885 28.9243Z" fill="#CEE4ED"/>
<path d="M74.7242 27.0718V117.789C74.9012 117.947 75.0794 118.105 75.2613 118.261V27.3377C75.1041 27.2573 74.9457 27.1782 74.7873 27.1028C74.7669 27.0912 74.7458 27.0809 74.7242 27.0718Z" fill="#CEE4ED"/>
<path d="M71.4612 25.7375V114.562C71.6353 114.755 71.8139 114.947 71.997 115.137V25.9305C71.8225 25.86 71.6407 25.7981 71.4612 25.7375Z" fill="#CEE4ED"/>
<path d="M68.1982 24.8484V110.599C68.3727 110.835 68.5521 111.073 68.734 111.311V24.9659C68.5558 24.9251 68.3776 24.8855 68.1982 24.8484Z" fill="#CEE4ED"/>
<path d="M64.934 24.36V105.603C65.0033 105.727 65.0763 105.851 65.1493 105.974C65.2532 106.149 65.3584 106.328 65.4673 106.51V24.4144C65.2916 24.3946 65.1134 24.3761 64.934 24.36Z" fill="#CEE4ED"/>
<path d="M61.6697 24.2499V100.557C61.8516 100.376 62.0311 100.186 62.2055 100.003V24.2425C62.0261 24.2425 61.8479 24.245 61.6697 24.2499Z" fill="#CEE4ED"/>
<path d="M58.4068 24.6185V103.285L58.4884 103.228C58.6406 103.12 58.7916 103.01 58.9425 102.9V24.5195C58.7631 24.5504 58.5825 24.5838 58.4068 24.6185Z" fill="#CEE4ED"/>
<path d="M55.1437 25.5694V105.263C55.3232 105.17 55.5014 105.074 55.6795 104.976V25.3703C55.4989 25.4358 55.3207 25.5001 55.1437 25.5694Z" fill="#CEE4ED"/>
<path d="M51.8795 27.2042V106.764C52.0577 106.693 52.2371 106.619 52.4153 106.544V26.8814C52.2915 26.9531 52.1678 27.0273 52.0441 27.1028C51.9884 27.1361 51.9327 27.1671 51.8795 27.2042Z" fill="#CEE4ED"/>
<path d="M48.6152 29.7564V107.916C48.7934 107.86 48.9716 107.804 49.151 107.745V29.2544C49.0273 29.3632 48.911 29.4733 48.791 29.5858C48.7328 29.6402 48.6734 29.6971 48.6152 29.7564Z" fill="#CEE4ED"/>
<path d="M45.3523 96.92V108.791C45.5292 108.75 45.7074 108.707 45.888 108.668V95.9691L45.8509 96.0334L45.5502 96.5689L45.3523 96.92Z" fill="#CEE4ED"/>
<path d="M45.3523 33.8941V91.1563C45.5304 91.1798 45.7086 91.2021 45.888 91.2206V33.0371C45.7511 33.2432 45.6179 33.4534 45.4884 33.6678C45.4413 33.742 45.3956 33.8174 45.3523 33.8941Z" fill="#CEE4ED"/>
<path d="M42.0892 53.3615V90.4985C42.2662 90.5479 42.4456 90.5949 42.625 90.6394V53.3615H42.0892Z" fill="#CEE4ED"/>
<path d="M42.0892 102.722V109.443C42.2637 109.416 42.4431 109.385 42.625 109.353V101.77L42.1041 102.696L42.0892 102.722Z" fill="#CEE4ED"/>
<path d="M38.825 61.4995V89.3349C38.9265 89.3806 39.0292 89.4251 39.1319 89.4672L39.3608 89.5624V60.9047C39.1937 61.1038 39.0156 61.3028 38.825 61.4995Z" fill="#CEE4ED"/>
<path d="M38.825 108.517V109.855C38.9822 109.841 39.1616 109.825 39.3608 109.803V107.565L38.825 108.517Z" fill="#CEE4ED"/>
<path d="M35.5607 63.9565V87.5752C35.7377 87.6914 35.9159 87.8015 36.0978 87.9115V63.6461L35.9406 63.7389C35.8144 63.8155 35.6907 63.886 35.5607 63.9565Z" fill="#CEE4ED"/>
<path d="M32.2978 65.2883V85.0488C32.4722 85.2121 32.6529 85.3716 32.8335 85.5286V65.1189C32.6578 65.1783 32.4735 65.2339 32.2978 65.2883Z" fill="#CEE4ED"/>
<path d="M29.0335 65.9956V81.3626C29.2067 81.6099 29.3862 81.8449 29.5693 82.0798V65.9091C29.3936 65.9375 29.2154 65.9659 29.0335 65.9956Z" fill="#CEE4ED"/>
<path d="M25.7705 66.2727V75.1229L26.0563 75.8648C26.1182 76.0219 26.1801 76.1789 26.2456 76.3335C26.2654 76.3817 26.2852 76.4299 26.3063 76.4782V66.243C26.1293 66.2591 25.9512 66.2652 25.7705 66.2727Z" fill="#CEE4ED"/>
<path d="M22.5063 66.243V66.5868L22.677 67.0294L23.0482 67.989V66.264C22.8664 66.2578 22.6882 66.2492 22.5063 66.243Z" fill="#CEE4ED"/>
<path d="M45.5502 96.5689H90.8487V96.0334H45.8509L45.5502 96.5689Z" fill="#CEE4ED"/>
<path d="M47.3977 93.2869H90.8487V92.7515H47.6996L47.3977 93.2869Z" fill="#CEE4ED"/>
<path d="M39.1319 89.4672L39.3608 89.5624C39.7407 89.7206 40.1267 89.8678 40.5153 90.0038H90.8487V89.4672H39.1319Z" fill="#CEE4ED"/>
<path d="M33.6242 86.1852C33.8527 86.3699 34.0858 86.5488 34.3233 86.7219H90.8487V86.1852H33.6242Z" fill="#CEE4ED"/>
<path d="M30.2387 82.9022C30.3922 83.0839 30.5481 83.2633 30.7065 83.4376H90.8438V82.9022H30.2387Z" fill="#CEE4ED"/>
<path d="M27.8951 79.6203C28.0028 79.8008 28.1129 79.9801 28.2255 80.1557H90.8487V79.6203H27.8951Z" fill="#CEE4ED"/>
<path d="M26.2456 76.3384C26.2654 76.3866 26.2852 76.4348 26.3063 76.4831C26.3595 76.6141 26.4164 76.744 26.4758 76.8738H90.8487V76.3384H26.2456Z" fill="#CEE4ED"/>
<path d="M24.9798 73.0553L25.1852 73.5907H90.8487V73.0553H24.9798Z" fill="#CEE4ED"/>
<path d="M23.7263 69.7734L23.9305 70.3089H90.8487V69.7734H23.7263Z" fill="#CEE4ED"/>
<path d="M22.4716 66.4915L22.5062 66.5843L22.677 67.027H90.8487V66.4915H22.4716Z" fill="#CEE4ED"/>
<path d="M35.9381 63.7438H90.8487V63.2084H36.7919C36.5704 63.3592 36.3378 63.5089 36.0978 63.6511L35.9381 63.7438Z" fill="#CEE4ED"/>
<path d="M39.7147 60.462H90.8487V59.9265H40.0995C39.9782 60.1046 39.852 60.2827 39.7147 60.462Z" fill="#CEE4ED"/>
<path d="M41.4656 57.1801H90.8487V56.6447H41.6302C41.5868 56.8165 41.5299 56.9946 41.4656 57.1801Z" fill="#CEE4ED"/>
<path d="M42.036 53.8969H90.8487V53.3615H42.0645L42.036 53.8969Z" fill="#CEE4ED"/>
<path d="M42.2229 50.6151H90.7695C90.7559 50.4358 90.7423 50.2577 90.7262 50.0797H42.2489L42.2229 50.6151Z" fill="#CEE4ED"/>
<path d="M42.4134 47.3332H90.334C90.2993 47.1539 90.2634 46.9758 90.2263 46.7977H42.4444L42.4134 47.3332Z" fill="#CEE4ED"/>
<path d="M42.6028 44.0501H89.4999C89.443 43.8708 89.3836 43.6915 89.3217 43.5146H42.6201V43.6531L42.6028 44.0501Z" fill="#CEE4ED"/>
<path d="M42.8861 40.7694H88.2143C88.1302 40.5901 88.046 40.4108 87.9569 40.2339H42.9789C42.9455 40.4108 42.9146 40.5888 42.8861 40.7694Z" fill="#CEE4ED"/>
<path d="M43.6979 37.4863H86.4238C86.31 37.307 86.1936 37.1277 86.0748 36.9509H43.8946C43.8241 37.1289 43.7597 37.307 43.6979 37.4863Z" fill="#CEE4ED"/>
<path d="M45.174 34.2032H83.9849C83.8314 34.0226 83.6747 33.8441 83.5146 33.6677H45.4883C45.4413 33.7419 45.3955 33.8174 45.3522 33.894C45.2916 33.9954 45.2322 34.0981 45.174 34.2032Z" fill="#CEE4ED"/>
<path d="M47.5041 30.9213H80.6662C80.4509 30.7395 80.2306 30.5602 80.0091 30.3859H47.9891C47.8245 30.5602 47.6625 30.7395 47.5041 30.9213Z" fill="#CEE4ED"/>
<path d="M51.215 27.6382H75.8391C75.6498 27.5356 75.458 27.4354 75.2662 27.3377C75.1091 27.2574 74.9507 27.1782 74.7923 27.1028H52.0478C51.9933 27.1362 51.9377 27.1696 51.8844 27.2042C51.6531 27.3427 51.434 27.4874 51.215 27.6382Z" fill="#CEE4ED"/>
<path d="M80.9038 122.384L81.2527 122.593C81.4292 122.699 81.6079 122.804 81.7885 122.907V122.919H90.8969V122.384H80.9038Z" fill="#CEE4ED"/>
<path d="M76.266 119.104C76.4863 119.284 76.7103 119.463 76.9379 119.64H90.8858V119.104H76.266Z" fill="#CEE4ED"/>
<path d="M72.6578 115.821C72.8347 116 73.0129 116.18 73.1948 116.357H90.8784V115.821H72.6578Z" fill="#CEE4ED"/>
<path d="M69.7078 112.539C69.8538 112.717 70.0036 112.897 70.1533 113.075H90.866V112.539H69.7078Z" fill="#CEE4ED"/>
<path d="M67.2442 109.257C67.3679 109.434 67.4916 109.614 67.6154 109.793H90.8561V109.257H67.2442Z" fill="#CEE4ED"/>
<path d="M38.1073 109.793H39.4684C40.1465 109.72 41.0374 109.609 42.0843 109.438C42.2587 109.411 42.4382 109.38 42.6201 109.348C42.802 109.316 42.9554 109.29 43.1274 109.257H38.4129L38.1073 109.793Z" fill="#CEE4ED"/>
<path d="M65.1493 105.974C65.2532 106.149 65.3584 106.328 65.4673 106.51H90.8487V105.974H65.1493Z" fill="#CEE4ED"/>
<path d="M39.9547 106.51H52.497C52.9004 106.339 53.3033 106.161 53.7059 105.974H40.2567L39.9547 106.51Z" fill="#CEE4ED"/>
<path d="M63.3959 102.691C63.4788 102.863 63.5679 103.041 63.6595 103.228H90.8487V102.691H63.3959Z" fill="#CEE4ED"/>
<path d="M41.8021 103.228H58.4884C58.6406 103.12 58.7915 103.01 58.9425 102.9L59.2184 102.691H42.1041L42.0892 102.717L41.8021 103.228Z" fill="#CEE4ED"/>
<path d="M43.6496 99.9447H90.8487V99.408H43.9515L43.6496 99.9447Z" fill="#CEE4ED"/>
<path d="M72.3707 26.0628L68.0522 20.9285C67.8492 20.687 67.592 20.4968 67.3015 20.3734C67.011 20.2501 66.6954 20.1971 66.3805 20.2187L54.7589 21.0138C54.4219 21.0371 54.0962 21.145 53.812 21.3274C53.5278 21.5098 53.2943 21.7609 53.133 22.0575L49.4208 28.8958C49.4208 28.8958 54.5683 24.2648 63.1286 24.433C68.6523 24.5406 72.3707 26.0628 72.3707 26.0628Z" fill="#7EBAD2"/>
<path d="M49.2822 28.7623C49.2822 28.7623 54.7403 24.2648 63.5951 24.4342C69.3131 24.5418 73.1602 26.064 73.1602 26.064" stroke="white" stroke-width="5" stroke-linecap="round" stroke-linejoin="round"/>
<path d="M22.6844 66.5484C44.3388 66.7598 42.1313 53.6521 42.1313 53.6521L53.3223 65.1189" stroke="white" stroke-width="5" stroke-linecap="round" stroke-linejoin="round"/>
<path d="M74.5188 60.7377C74.5188 60.7377 68.1784 91.5137 47.368 91.7326" stroke="white" stroke-width="5" stroke-linecap="round" stroke-linejoin="round"/>
<path d="M53.3854 18.5827L54.1501 21.1511C54.3427 21.0746 54.546 21.0284 54.7527 21.0138L66.378 20.2175C66.4349 20.2175 66.4906 20.2175 66.5463 20.2175L61.2874 10.4114L53.3854 18.5827Z" fill="#FFC200"/>
<path d="M53.3854 18.5827L54.1501 21.1511C54.3427 21.0747 54.546 21.0284 54.7527 21.0138L57.0283 20.8605C57.8338 20.0728 58.2434 18.9982 58.2261 17.769L58.205 16.1701L57.8623 13.9567L53.3854 18.5827Z" fill="#A74602"/>
<path d="M57.0345 9.6583C57.0345 9.6583 52.3646 10.4497 49.5631 8.17441C46.3397 5.56275 47.3556 1.30768 50.1732 1.02327C53.2976 0.707939 53.8259 3.69675 53.5933 4.00219C53.5933 4.00219 54.5535 4.58833 56.9801 4.12585C58.8238 3.7759 60.2876 3.41728 62.1449 4.93828C64.0839 6.52605 63.73 10.8182 60.6019 11.9522C58.6976 12.6496 57.0345 9.6583 57.0345 9.6583Z" fill="#A74602"/>
<path d="M56.8365 9.68303C51.3919 10.2568 49.3156 7.93451 49.3156 7.93451C47.8778 9.54206 48.0782 14.5638 48.0782 14.5638C50.704 15.7658 50.8438 19.2418 50.8438 19.2418C51.859 19.3141 52.8781 19.3104 53.8927 19.2307C54.8855 19.1535 55.8117 18.7014 56.483 17.9665C57.1544 17.2315 57.5205 16.2687 57.5072 15.2736L57.4948 14.3783H57.7484C58.0644 14.3855 58.3787 14.3296 58.6727 14.2137C58.9667 14.0979 59.2346 13.9244 59.4607 13.7037C59.6867 13.4829 59.8663 13.2192 59.9889 12.9281C60.1115 12.637 60.1747 12.3243 60.1747 12.0084C60.1747 11.6926 60.1115 11.3799 59.9889 11.0888C59.8663 10.7976 59.6867 10.534 59.4607 10.3132C59.2346 10.0924 58.9667 9.91898 58.6727 9.80313C58.3787 9.68727 58.0644 9.6313 57.7484 9.63852L56.8365 9.68303Z" fill="#FFC200"/>
<path d="M52.3955 10.5499C52.3955 10.5499 51.1098 9.71271 49.9071 9.82153" stroke="#59221D" stroke-width="5" stroke-linecap="round" stroke-linejoin="round"/>
<path d="M50.9626 12.4715C50.7289 12.4715 50.5394 12.1676 50.5394 11.7927C50.5394 11.4177 50.7289 11.1138 50.9626 11.1138C51.1963 11.1138 51.3858 11.4177 51.3858 11.7927C51.3858 12.1676 51.1963 12.4715 50.9626 12.4715Z" fill="#59221D"/>
<path d="M51.7669 15.6483C51.7669 15.6483 51.7422 16.4582 50.3823 16.5225" stroke="#59221D" stroke-width="5" stroke-linecap="round" stroke-linejoin="round"/>
<path d="M58.5144 11.9225C58.5146 11.7847 58.4875 11.6483 58.4349 11.521C58.3822 11.3937 58.3049 11.278 58.2074 11.1806C58.11 11.0832 57.9942 11.006 57.8669 10.9533C57.7395 10.9007 57.6029 10.8737 57.4651 10.8738" stroke="#59221D" stroke-width="5" stroke-linecap="round" stroke-linejoin="round"/>
<path d="M57.3574 9.03754H58.2991C59.7007 9.03754 60.837 10.173 60.837 11.5738V12.5148C60.837 13.9155 59.7007 15.051 58.2991 15.051H57.3574C55.9558 15.051 54.8195 13.9155 54.8195 12.5148V11.5738C54.8195 10.173 55.9558 9.03754 57.3574 9.03754Z" fill="white" stroke="#59221D" stroke-width="5" stroke-linecap="round" stroke-linejoin="round"/>
<path d="M57.6482 8.92004V3.79566C57.6482 3.59003 57.5665 3.39282 57.421 3.24741C57.2755 3.10201 57.0781 3.02032 56.8724 3.02032C56.6666 3.02032 56.4693 3.10201 56.3238 3.24741C56.1783 3.39282 56.0965 3.59003 56.0965 3.79566" stroke="#59221D" stroke-width="5" stroke-linecap="round" stroke-linejoin="round"/>
<path d="M57.9638 15.119V18.9969C57.9638 20.6157 57.4911 22.1994 56.6035 23.5536C55.7159 24.9078 54.4522 25.9736 52.9672 26.6204C45.1073 30.0458 40.0265 38.0675 40.0265 46.637V53.8091" stroke="#59221D" stroke-width="5" stroke-linecap="round" stroke-linejoin="round"/>
<path d="M22.0015 65.7384C41.238 66.7598 41.7391 54.1145 41.7391 54.1145L25.0083 27.6777C24.3486 26.6272 23.4329 25.7611 22.3469 25.1608C21.2609 24.5604 20.0402 24.2453 18.7991 24.245H16.625L16.9875 24.9152C17.1214 25.1631 17.1886 25.4415 17.1825 25.7231C17.1764 26.0047 17.0973 26.2799 16.9529 26.5218C16.8085 26.7637 16.6037 26.964 16.3586 27.1031C16.1135 27.2422 15.8365 27.3154 15.5546 27.3154H13.998C13.7018 27.3156 13.4112 27.2352 13.1574 27.0826C12.9037 26.9301 12.6963 26.7113 12.5577 26.4498L8.62522 18.9846L7.30741 23.0579C6.88201 24.3709 6.91866 25.7899 7.41133 27.0792L22.0015 65.7384Z" fill="#FFC200"/>
<path d="M8.74774 19.2121L12.5515 26.4436C12.6898 26.7054 12.8971 26.9245 13.1509 27.077C13.4048 27.2296 13.6956 27.3099 13.9918 27.3093H15.6004C15.879 27.3089 16.1529 27.2371 16.3958 27.1007C16.6387 26.9643 16.8426 26.7679 16.9878 26.5303C17.1331 26.2927 17.2149 26.0219 17.2255 25.7436C17.236 25.4654 17.175 25.1891 17.0482 24.9412L14.0784 19.2245C13.9059 18.8899 13.6445 18.6091 13.3231 18.4128C13.0017 18.2166 12.6325 18.1123 12.2558 18.1116H9.40976C9.28058 18.112 9.15368 18.1457 9.04135 18.2095C8.92901 18.2732 8.83502 18.3648 8.76846 18.4755C8.70191 18.5861 8.66503 18.712 8.6614 18.8411C8.65777 18.9701 8.68751 19.0979 8.74774 19.2121Z" fill="#59221D"/>
<path d="M17.1855 53.1141C17.1855 53.1141 15.4457 66.2219 22.953 66.2812C42.5879 66.4185 41.9866 54.8577 41.9866 54.8577C41.9866 49.5849 37.3179 47.0141 37.3179 47.0141C37.3179 47.0141 37.0395 51.9468 29.4592 54.1343C21.8789 56.3218 17.1855 53.1141 17.1855 53.1141Z" fill="#7EBAD2"/>
</svg>
