<svg width="41" height="40" viewBox="0 0 41 40" fill="none" xmlns="http://www.w3.org/2000/svg">
<g clip-path="url(#clip0_62_385)">
<circle cx="20.5" cy="20" r="20" fill="#219EBC"/>
<path fill-rule="evenodd" clip-rule="evenodd" d="M20.1667 27.302C16.6134 26.9663 13.8333 23.9745 13.8333 20.3333C13.8333 18.4172 14.604 16.6803 15.8505 15.4169C15.8391 15.2793 15.8333 15.1403 15.8333 15C15.8333 12.2386 18.0719 10 20.8333 10C23.5948 10 25.8333 12.2386 25.8333 15C25.8333 15.1403 25.8275 15.2793 25.8162 15.4169C27.0627 16.6803 27.8333 18.4172 27.8333 20.3333C27.8333 23.9745 25.0533 26.9663 21.5 27.302V29.3333C21.5 29.7015 21.2015 30 20.8333 30C20.4651 30 20.1667 29.7015 20.1667 29.3333V27.302ZM17.1667 15C17.1667 12.975 18.8083 11.3333 20.8333 11.3333C22.8584 11.3333 24.5 12.975 24.5 15C24.5 15.1927 24.4852 15.3814 24.4568 15.5653C24.4228 15.7853 24.5008 16.0077 24.6647 16.1582C25.7938 17.1949 26.5 18.6812 26.5 20.3333C26.5 23.2374 24.3154 25.6312 21.5 25.9612V24.3168C22.608 24.2196 23.5969 23.6994 24.3214 22.9208C24.5722 22.6512 24.557 22.2294 24.2875 21.9786C24.0179 21.7278 23.5961 21.743 23.3453 22.0125C22.8577 22.5365 22.2141 22.8844 21.5 22.9759V22.2617C22.0634 22.1385 22.5689 21.8624 22.9645 21.4782C23.2286 21.2217 23.2347 20.7996 22.9782 20.5355C22.7217 20.2714 22.2996 20.2653 22.0355 20.5218C21.885 20.668 21.7035 20.7876 21.5 20.8707V19.3333C21.5 18.9651 21.2015 18.6667 20.8333 18.6667C20.4651 18.6667 20.1667 18.9651 20.1667 19.3333V22.8417C19.4308 22.5907 18.8077 22.0562 18.4177 21.3458C18.2405 21.0231 17.8352 20.9051 17.5125 21.0823C17.1897 21.2595 17.0718 21.6648 17.249 21.9875C17.8617 23.1035 18.9115 23.9403 20.1667 24.2263V25.9612C17.3512 25.6312 15.1667 23.2374 15.1667 20.3333C15.1667 18.6812 15.8729 17.1949 17.0019 16.1582C17.1659 16.0077 17.2439 15.7853 17.2099 15.5653C17.1815 15.3814 17.1667 15.1927 17.1667 15Z" fill="#F8F9FA"/>
</g>
<defs>
<clipPath id="clip0_62_385">
<rect width="40" height="40" fill="white" transform="translate(0.5)"/>
</clipPath>
</defs>
</svg>
