<svg width="41" height="40" viewBox="0 0 41 40" fill="none" xmlns="http://www.w3.org/2000/svg">
<g clip-path="url(#clip0_62_384)">
<circle cx="20.5" cy="20" r="20" fill="#219EBC"/>
<g clip-path="url(#clip1_62_384)">
<path d="M20.9428 24.7397H19.5765V29.3168H20.9428V24.7397Z" fill="#F8F9FA"/>
<path d="M22.8784 28.6338H17.6183V30.0001H22.8784V28.6338Z" fill="#F8F9FA"/>
<path d="M18.7886 21.4995L14.4279 11.3663H11.3333V10H15.3274L20.0433 20.9598L18.7886 21.4995Z" fill="#F8F9FA"/>
<path d="M20.2574 25.4478C19.3351 25.4478 18.4402 25.268 17.5954 24.9127C16.7711 24.5666 16.031 24.0702 15.398 23.4349C14.0978 22.1369 13.3827 20.4131 13.3827 18.5823V14.3218C13.3827 13.8755 13.7448 13.5134 14.1911 13.5134H26.3054C26.7517 13.5134 27.1138 13.8755 27.1138 14.3218V18.5459C27.1138 20.3767 26.4056 22.1027 25.1213 23.4053C23.8325 24.7146 22.1155 25.4387 20.287 25.4456C20.2779 25.4478 20.2688 25.4478 20.2574 25.4478ZM14.749 14.8797V18.5823C14.749 20.0488 15.3228 21.4287 16.3635 22.4716C17.4019 23.51 18.7841 24.0816 20.2574 24.0816C20.2665 24.0816 20.2733 24.0816 20.2824 24.0816C23.2951 24.0679 25.7475 21.5858 25.7475 18.5459V14.8797H14.749Z" fill="#F8F9FA"/>
<path d="M25.7476 18.0474V14.8799H22.5095L22.5163 14.19C22.5254 13.1721 22.9353 12.2202 23.6708 11.5052C24.4018 10.7948 25.365 10.4145 26.3806 10.4372C27.3802 10.4577 28.3161 10.8676 29.0152 11.5917C29.7143 12.3136 30.0946 13.2609 30.0855 14.2628C30.0786 15.242 29.7029 16.1642 29.0312 16.8633C28.3571 17.5647 27.444 17.9745 26.4603 18.0178L25.7476 18.0474ZM23.9873 13.5136H26.3032C26.7495 13.5136 27.1115 13.8757 27.1115 14.322V16.5149C28.0566 16.187 28.7101 15.308 28.7192 14.2492C28.7306 12.9284 27.6672 11.8308 26.351 11.8035C25.702 11.7899 25.0895 12.0335 24.6204 12.4867C24.3221 12.7781 24.108 13.1288 23.9873 13.5136Z" fill="#F8F9FA"/>
</g>
</g>
<defs>
<clipPath id="clip0_62_384">
<rect width="40" height="40" fill="white" transform="translate(0.5)"/>
</clipPath>
<clipPath id="clip1_62_384">
<rect width="20" height="20" fill="white" transform="translate(10.5 10)"/>
</clipPath>
</defs>
</svg>
