<svg width="41" height="40" viewBox="0 0 41 40" fill="none" xmlns="http://www.w3.org/2000/svg">
<g clip-path="url(#clip0_62_383)">
<circle cx="20.5" cy="20" r="20" fill="#219EBC"/>
<g clip-path="url(#clip1_62_383)">
<path fill-rule="evenodd" clip-rule="evenodd" d="M19.0286 10.1953C19.2889 9.93491 19.7111 9.93491 19.9714 10.1953L20.003 10.2269C20.9778 11.2016 20.8776 12.8101 19.7895 13.6565C19.3879 13.9688 19.3003 14.5404 19.5899 14.9586L20.0481 15.6205C20.2577 15.9232 20.1822 16.3386 19.8795 16.5481C19.5768 16.7577 19.1614 16.6822 18.9519 16.3795L18.4936 15.7176C17.8013 14.7175 18.0108 13.3507 18.9709 12.604C19.426 12.25 19.4679 11.5773 19.0602 11.1697L19.0286 11.1381C18.7682 10.8777 18.7682 10.4556 19.0286 10.1953ZM23.0286 10.1953C23.2889 9.93491 23.7111 9.93491 23.9714 10.1953L24.003 10.2269C24.9778 11.2016 24.8776 12.8101 23.7895 13.6565C23.3879 13.9688 23.3003 14.5404 23.5899 14.9586L24.0481 15.6205C24.2577 15.9232 24.1822 16.3386 23.8795 16.5481C23.5768 16.7577 23.1614 16.6822 22.9519 16.3795L22.4936 15.7176C21.8013 14.7175 22.0108 13.3507 22.9709 12.604C23.426 12.25 23.4679 11.5773 23.0602 11.1697L23.0286 11.1381C22.7682 10.8777 22.7682 10.4556 23.0286 10.1953ZM10.5 18C10.5 17.6318 10.7985 17.3333 11.1667 17.3333H27.6839C29.2392 17.3333 30.5 18.5941 30.5 20.1494C30.5 22.4071 28.7118 24.2471 26.4745 24.3304C25.6259 26.2747 24.0569 27.8326 22.1048 28.6667H26.1667C26.5349 28.6667 26.8333 28.9651 26.8333 29.3333C26.8333 29.7015 26.5349 30 26.1667 30H12.1667C11.7985 30 11.5 29.7015 11.5 29.3333C11.5 28.9651 11.7985 28.6667 12.1667 28.6667H15.5619C12.5857 27.3951 10.5 24.4411 10.5 21V18ZM26.9418 22.9311C28.2151 22.6459 29.1667 21.5088 29.1667 20.1494C29.1667 19.3305 28.5028 18.6667 27.6839 18.6667H27.1667V21C27.1667 21.6648 27.0888 22.3113 26.9418 22.9311ZM25.8333 18.6667H11.8333V21C11.8333 24.866 14.9673 28 18.8333 28C22.6993 28 25.8333 24.866 25.8333 21V18.6667ZM13.5067 22.0246C13.8613 21.9255 14.2291 22.1327 14.3282 22.4873C14.7241 23.9044 15.8137 25.0289 17.2009 25.4673C17.552 25.5783 17.7467 25.9528 17.6357 26.3039C17.5247 26.655 17.1502 26.8496 16.7991 26.7387C14.981 26.1641 13.5607 24.6952 13.044 22.8461C12.945 22.4914 13.1521 22.1237 13.5067 22.0246Z" fill="#F8F9FA"/>
</g>
</g>
<defs>
<clipPath id="clip0_62_383">
<rect width="40" height="40" fill="white" transform="translate(0.5)"/>
</clipPath>
<clipPath id="clip1_62_383">
<rect width="20" height="20" fill="white" transform="translate(10.5 10)"/>
</clipPath>
</defs>
</svg>
