<svg width="41" height="40" viewBox="0 0 41 40" fill="none" xmlns="http://www.w3.org/2000/svg">
<g clip-path="url(#clip0_62_382)">
<circle cx="20.5" cy="20" r="20" fill="#219EBC"/>
<g clip-path="url(#clip1_62_382)">
<path d="M27.3117 12.4729C26.9287 11.4768 25.9961 10.8333 24.9365 10.8333H15.233C14.1733 10.8333 13.2407 11.4768 12.855 12.4784L10.5433 18.6669C10.5147 18.7443 10.5 18.8253 10.5 18.9081C10.5 20.0746 11.1932 21.0762 12.1848 21.543V27.1708C12.1848 28.5665 13.3208 29.7026 14.7165 29.7026H17.9599C17.9673 29.7026 17.9746 29.7072 17.982 29.7072C17.9894 29.7072 17.9967 29.7026 18.0041 29.7026H23.2986C23.306 29.7026 23.3134 29.7072 23.3207 29.7072C23.3281 29.7072 23.3355 29.7026 23.3428 29.7026H25.4502C26.8458 29.7026 27.9819 28.5665 27.9819 27.1708V21.543C28.9743 21.0762 29.6667 20.0746 29.6667 18.9081C29.6667 18.8262 29.6519 18.7443 29.6234 18.6678L27.3098 12.4738L27.3117 12.4729ZM22.0641 28.3207H18.1054V26.6589C18.1054 25.5671 18.9928 24.6796 20.0847 24.6796C21.1766 24.6796 22.0641 25.5671 22.0641 26.6589V28.3207ZM26.6028 27.1699C26.6028 27.8042 26.0863 28.3207 25.452 28.3207H23.445V26.6589C23.445 24.8057 21.9379 23.2986 20.0847 23.2986C18.2315 23.2986 16.7244 24.8057 16.7244 26.6589V28.3207H14.7174C14.0831 28.3207 13.5666 27.8042 13.5666 27.1699V21.809C14.3943 21.7667 15.1354 21.3874 15.639 20.7917C16.1748 21.4242 16.9748 21.8256 17.866 21.8256C18.7572 21.8256 19.5507 21.4242 20.0847 20.7927C20.6187 21.4242 21.415 21.8256 22.3034 21.8256C23.1919 21.8256 23.9946 21.4233 24.5305 20.7917C25.034 21.3874 25.7751 21.7667 26.6028 21.809V27.1699ZM26.7501 20.4447C25.9068 20.4447 25.2218 19.7551 25.2218 18.9072C25.2218 18.5261 24.9125 18.2167 24.5314 18.2167C24.1502 18.2167 23.8409 18.5261 23.8409 18.9072C23.8409 19.7551 23.1513 20.4447 22.3034 20.4447C21.4601 20.4447 20.7752 19.7551 20.7752 18.9072C20.7752 18.5261 20.4659 18.2167 20.0847 18.2167C19.7036 18.2167 19.3942 18.5261 19.3942 18.9072C19.3942 19.7551 18.7084 20.4447 17.866 20.4447C17.0181 20.4447 16.3285 19.7551 16.3285 18.9072C16.3285 18.5261 16.0192 18.2167 15.6381 18.2167C15.2569 18.2167 14.9476 18.5261 14.9476 18.9072C14.9476 19.7551 14.2617 20.4447 13.4193 20.4447C12.6092 20.4447 11.9436 19.815 11.8856 19.0204L14.1466 12.9682C14.3225 12.5097 14.7487 12.2142 15.233 12.2142H24.9365C25.4198 12.2142 25.847 12.5097 26.021 12.9627L28.2839 19.0204C28.2259 19.8159 27.5603 20.4447 26.7501 20.4447Z" fill="#F8F9FA"/>
</g>
</g>
<defs>
<clipPath id="clip0_62_382">
<rect width="40" height="40" fill="white" transform="translate(0.5)"/>
</clipPath>
<clipPath id="clip1_62_382">
<rect width="20" height="20" fill="white" transform="translate(10.5 10)"/>
</clipPath>
</defs>
</svg>
