<svg width="41" height="40" viewBox="0 0 41 40" fill="none" xmlns="http://www.w3.org/2000/svg">
<g clip-path="url(#clip0_62_381)">
<circle cx="20.5" cy="20" r="20" fill="#219EBC"/>
<path d="M29.1653 19.2908C29.0174 19.1221 28.8352 18.9867 28.6309 18.8939C28.4265 18.801 28.2048 18.7527 27.9804 18.7522H24.1383L29.4436 12.693L28.4292 11.7953L22.352 18.7522H19.659L26.7506 10.8977L25.7452 10L17.8637 18.7522H13.7434C13.518 18.7527 13.2953 18.8014 13.0902 18.895C12.8852 18.9887 12.7026 19.1251 12.5546 19.2951C12.4067 19.4652 12.2968 19.6649 12.2325 19.881C12.1681 20.097 12.1507 20.3243 12.1814 20.5476C12.527 23.0717 13.7774 25.3844 15.7003 27.0557V30H26.0234V27.0557C27.9463 25.3844 29.1968 23.0717 29.5423 20.5476C29.5738 20.3233 29.5563 20.0949 29.4913 19.878C29.4262 19.661 29.315 19.4608 29.1653 19.2908ZM24.9283 26.158L24.6769 26.3645V28.5996H17.0468V26.3914L16.7954 26.158C15.0111 24.6907 13.8393 22.6097 13.51 20.3232C13.5062 20.2925 13.5091 20.2615 13.5184 20.232C13.5277 20.2026 13.5432 20.1755 13.5638 20.1526C13.5851 20.128 13.6112 20.1081 13.6406 20.0942C13.67 20.0803 13.7019 20.0727 13.7344 20.0718H27.9804C28.0128 20.0727 28.0448 20.0803 28.0742 20.0942C28.1035 20.1081 28.1297 20.128 28.1509 20.1526C28.1716 20.1755 28.1871 20.2026 28.1964 20.232C28.2057 20.2615 28.2085 20.2925 28.2048 20.3232C27.8778 22.6084 26.7093 24.6892 24.9283 26.158Z" fill="#F8F9FA"/>
</g>
<defs>
<clipPath id="clip0_62_381">
<rect width="40" height="40" fill="white" transform="translate(0.5)"/>
</clipPath>
</defs>
</svg>
