<svg width="24" height="24" viewBox="0 0 24 24" fill="none" xmlns="http://www.w3.org/2000/svg">
<path d="M20.174 2.96758C19.7144 1.77223 18.5953 1 17.3237 1H5.67957C4.40799 1 3.28887 1.77223 2.82598 2.97421L0.0519238 10.4004C0.0176762 10.4932 0 10.5904 0 10.6898C0 12.0896 0.831884 13.2916 2.02171 13.8517V20.6051C2.02171 22.2799 3.38498 23.6432 5.0598 23.6432H8.95187C8.96071 23.6432 8.96955 23.6487 8.97839 23.6487C8.98722 23.6487 8.99606 23.6432 9.0049 23.6432H15.3584C15.3672 23.6432 15.3761 23.6487 15.3849 23.6487C15.3937 23.6487 15.4026 23.6432 15.4114 23.6432H17.9402C19.615 23.6432 20.9783 22.2799 20.9783 20.6051V13.8517C22.1692 13.2916 23 12.0896 23 10.6898C23 10.5915 22.9823 10.4932 22.9481 10.4015L20.1718 2.96868L20.174 2.96758ZM13.8769 21.9849H9.12642V19.9908C9.12642 18.6806 10.1914 17.6156 11.5017 17.6156C12.8119 17.6156 13.8769 18.6806 13.8769 19.9908V21.9849ZM19.3234 20.604C19.3234 21.3651 18.7036 21.9849 17.9424 21.9849H15.534V19.9908C15.534 17.7669 13.7255 15.9585 11.5017 15.9585C9.27778 15.9585 7.46928 17.7669 7.46928 19.9908V21.9849H5.06091C4.29973 21.9849 3.67996 21.3651 3.67996 20.604V14.1709C4.67314 14.1201 5.56247 13.665 6.16677 12.9502C6.80974 13.7092 7.76978 14.1908 8.83919 14.1908C9.90859 14.1908 10.8609 13.7092 11.5017 12.9513C12.1424 13.7092 13.098 14.1908 14.1641 14.1908C15.2302 14.1908 16.1936 13.7081 16.8365 12.9502C17.4408 13.665 18.3302 14.1201 19.3234 14.1709V20.604ZM19.5001 12.5337C18.4882 12.5337 17.6662 11.7062 17.6662 10.6887C17.6662 10.2314 17.295 9.86018 16.8376 9.86018C16.3803 9.86018 16.0091 10.2314 16.0091 10.6887C16.0091 11.7062 15.1816 12.5337 14.1641 12.5337C13.1522 12.5337 12.3302 11.7062 12.3302 10.6887C12.3302 10.2314 11.959 9.86018 11.5017 9.86018C11.0443 9.86018 10.6731 10.2314 10.6731 10.6887C10.6731 11.7062 9.85004 12.5337 8.83919 12.5337C7.8217 12.5337 6.99424 11.7062 6.99424 10.6887C6.99424 10.2314 6.62304 9.86018 6.16567 9.86018C5.7083 9.86018 5.3371 10.2314 5.3371 10.6887C5.3371 11.7062 4.51405 12.5337 3.50319 12.5337C2.53101 12.5337 1.73226 11.778 1.66266 10.8246L4.37595 3.56194C4.58696 3.01177 5.09847 2.65714 5.67957 2.65714H17.3237C17.9037 2.65714 18.4164 3.01177 18.6251 3.55531L21.3406 10.8246C21.271 11.7791 20.4723 12.5337 19.5001 12.5337Z" fill="#212529"/>
</svg>
