<svg width="24" height="24" viewBox="0 0 24 24" fill="none" xmlns="http://www.w3.org/2000/svg">
<path fill-rule="evenodd" clip-rule="evenodd" d="M11.6 20.7624C7.33604 20.3596 4 16.7694 4 12.4C4 10.1007 4.92476 8.01632 6.4206 6.50028C6.40696 6.3352 6.4 6.16832 6.4 6C6.4 2.68629 9.08628 0 12.4 0C15.7137 0 18.4 2.68629 18.4 6C18.4 6.16832 18.393 6.3352 18.3794 6.50028C19.8752 8.01632 20.8 10.1007 20.8 12.4C20.8 16.7694 17.464 20.3596 13.2 20.7624V23.2C13.2 23.6418 12.8418 24 12.4 24C11.9582 24 11.6 23.6418 11.6 23.2V20.7624ZM8 6C8 3.56996 9.96996 1.6 12.4 1.6C14.83 1.6 16.8 3.56996 16.8 6C16.8 6.2312 16.7822 6.45772 16.7481 6.6784C16.7074 6.94232 16.801 7.2092 16.9977 7.38984C18.3526 8.63388 19.2 10.4174 19.2 12.4C19.2 15.8849 16.5785 18.7575 13.2 19.1534V17.1802C14.5296 17.0636 15.7163 16.4393 16.5857 15.505C16.8866 15.1815 16.8684 14.6753 16.545 14.3743C16.2215 14.0734 15.7153 14.0916 15.4143 14.415C14.8293 15.0438 14.0569 15.4613 13.2 15.5711V14.714C13.8761 14.5662 14.4827 14.2349 14.9574 13.7738C15.2743 13.466 15.2817 12.9595 14.9738 12.6426C14.666 12.3257 14.1595 12.3183 13.8426 12.6262C13.662 12.8016 13.4442 12.9452 13.2 13.0448V11.2C13.2 10.7582 12.8418 10.4 12.4 10.4C11.9582 10.4 11.6 10.7582 11.6 11.2V15.41C10.7169 15.1088 9.96928 14.4674 9.50124 13.615C9.2886 13.2277 8.80228 13.0861 8.41496 13.2988C8.02768 13.5114 7.88612 13.9977 8.09876 14.385C8.834 15.7242 10.0938 16.7284 11.6 17.0716V19.1534C8.22148 18.7575 5.6 15.8849 5.6 12.4C5.6 10.4174 6.44744 8.63388 7.80232 7.38984C7.99904 7.2092 8.09264 6.94232 8.05188 6.6784C8.01776 6.45772 8 6.2312 8 6Z" fill="#212529"/>
</svg>
