<svg width="32" height="32" viewBox="0 0 32 32" fill="none" xmlns="http://www.w3.org/2000/svg">
<rect width="32" height="32" rx="16" fill="#E9ECEF"/>
<path d="M21.8779 13.254H21.6507C19.6824 13.254 17.8402 12.497 16.4523 11.109C16.0233 10.68 15.342 10.6296 14.8625 10.9576C12.6418 12.2951 10.7744 14.1625 9.43696 16.3832C9.1089 16.9383 9.26031 17.6449 9.76501 18.0487C10.3454 18.5029 11.2286 18.3263 11.6072 17.6954C12.339 16.4841 13.2475 15.399 14.3073 14.4653V17.4935C13.4998 20.2694 12.3642 22.9443 10.9258 25.4678L10.6735 25.8968C10.3202 26.5024 10.5473 27.2847 11.1529 27.6128C11.3548 27.7137 11.5567 27.7894 11.7838 27.7894C12.2128 27.7894 12.6418 27.5623 12.8689 27.1586L13.1213 26.7296C14.3073 24.635 15.2915 22.4648 16.0738 20.2441C17.5879 22.2125 18.7235 24.4332 19.4048 26.8557C19.5815 27.5119 20.3133 27.9156 20.9694 27.7137C21.6255 27.5371 22.0293 26.8053 21.8274 26.1492C20.8685 22.7676 19.102 19.8656 16.8308 17.1907V14.5158C18.2945 15.3485 19.9348 15.7775 21.6507 15.7775C22.3069 15.7775 22.9377 15.4999 23.0891 14.7934C23.291 14.0111 22.6601 13.254 21.8779 13.254Z" fill="#212529"/>
<path d="M15.569 10.0996C16.9627 10.0996 18.0926 8.96982 18.0926 7.57612C18.0926 6.18243 16.9627 5.05261 15.569 5.05261C14.1753 5.05261 13.0455 6.18243 13.0455 7.57612C13.0455 8.96982 14.1753 10.0996 15.569 10.0996Z" fill="#212529"/>
</svg>
