<svg width="370" height="90" viewBox="0 0 370 90" fill="none" xmlns="http://www.w3.org/2000/svg">
<path d="M37.2022 39.9827C38.4812 38.8605 39.927 38.2995 41.5396 38.2995C42.8186 38.2995 43.8196 38.6642 44.5425 39.3935C45.8215 40.684 46.8225 42.7599 47.5454 45.6213C48.2683 48.4267 48.6297 51.5406 48.6297 54.963C48.6297 58.4977 48.2127 61.8361 47.3785 64.978C46.2108 69.2982 44.5703 72.6365 42.4572 74.993C40.3997 77.3495 38.1197 78.5277 35.6173 78.5277C33.8935 78.5277 32.1696 77.9386 30.4457 76.7604C29.4448 76.0871 27.8599 74.4881 25.6912 71.9633C24.9683 71.0656 24.2176 70.2801 23.439 69.6068C22.7161 68.8774 22.2435 68.5127 22.021 68.5127C21.0201 68.5127 19.1016 71.0936 16.2655 76.2554C13.8187 80.6878 11.2886 83.1565 8.67495 83.6614C8.00764 83.7737 7.50717 83.8298 7.17351 83.8298C5.11599 83.8298 3.39213 82.5393 2.00191 79.9584C1.39022 78.668 0.973151 77.1531 0.750717 75.4138C0.583891 73.6184 0.389261 69.4946 0.166826 63.0424C0.0556089 58.3294 0 55.4961 0 54.5422C0 50.9514 0.19463 48.6511 0.583891 47.6412C0.973151 46.6313 1.77948 46.0702 3.00287 45.958H4.00382C5.39404 45.958 6.67304 46.5471 7.84082 47.7253C8.56373 48.4547 9.0086 49.3244 9.17542 50.3343C9.39786 51.3442 9.59249 53.9251 9.75932 58.0769L10.093 66.8295L13.93 61.9483C15.9319 59.3674 17.4889 57.6842 18.6011 56.8987C19.7133 56.0571 21.0479 55.6363 22.6049 55.6363C23.6615 55.6363 24.6068 56.0291 25.4409 56.8146C26.2751 57.5439 28.0546 59.5638 30.7794 62.874C33.1149 65.7916 34.533 67.3345 35.0334 67.5028H35.1168C35.1725 67.5589 35.2281 67.587 35.2837 67.587C36.1178 67.587 36.9241 66.2124 37.7026 63.4632C38.4812 60.7139 38.8704 57.9367 38.8704 55.1314C38.8704 54.1214 38.8426 53.3921 38.787 52.9432C38.5646 50.5868 37.8973 48.8475 36.7851 47.7253C35.6729 46.6032 35.1168 45.3689 35.1168 44.0223C35.1168 42.5635 35.812 41.217 37.2022 39.9827Z" fill="#212529"/>
<path d="M83.0395 44.3589C81.7049 41.217 80.7596 39.646 80.2035 39.646C79.9255 39.646 79.703 39.8985 79.5362 40.4035C79.4806 40.5157 79.3694 40.8523 79.2026 41.4134C79.0357 41.9183 78.7855 42.5916 78.4518 43.4332C78.1738 44.2748 77.8957 45.0603 77.6177 45.7897C76.6167 48.6511 76.1163 50.4465 76.1163 51.1759C76.1163 51.9614 76.728 52.3541 77.9513 52.3541H78.4518C82.7337 52.1858 84.8746 51.4283 84.8746 50.0818C84.8746 49.2402 84.2629 47.3326 83.0395 44.3589ZM76.4499 24.329C77.7845 22.9824 79.1191 22.3092 80.4537 22.3092C83.679 22.3092 86.6819 26.3488 89.4623 34.4281C90.2409 36.6163 90.8525 37.9909 91.2974 38.5519C91.5199 38.7764 92.5764 41.6658 94.4671 47.2204C96.0798 52.1016 97.6924 56.1132 99.3051 59.2552C100.751 61.9483 101.474 64.1925 101.474 65.9879C101.474 67.8956 100.584 69.2982 98.8046 70.1959C97.9148 70.6448 97.1641 70.8692 96.5524 70.8692C94.6617 70.8692 92.9379 69.1299 91.3808 65.6513C90.1574 62.9582 89.3233 61.4714 88.8785 61.1908C88.7672 61.1347 88.4892 61.1067 88.0443 61.1067C87.1546 61.1067 85.959 61.247 84.4576 61.5275C82.7893 61.8641 80.0089 62.2288 76.1163 62.6216L71.4451 63.0424L69.3598 68.1761C67.0799 73.955 64.7165 76.8445 62.2697 76.8445C61.1575 76.8445 60.101 76.3676 59.1 75.4138C58.0991 74.46 57.5986 73.4781 57.5986 72.4682C57.5986 71.3461 58.8498 67.6992 61.3522 61.5275C63.6877 55.5802 65.6062 50.4184 67.1077 46.0421C68.053 43.0685 68.9427 40.5437 69.7769 38.4678C70.6666 36.3357 71.5007 34.1476 72.2793 31.9033C73.6139 28.3125 75.0041 25.7877 76.4499 24.329Z" fill="#212529"/>
<path d="M115.881 27.4429C116.604 26.994 117.382 26.7696 118.216 26.7696C118.995 26.7696 119.968 27.1062 121.136 27.7795C122.359 28.4528 123.082 29.07 123.305 29.631C123.471 30.0799 123.555 31.174 123.555 32.9132C123.555 39.0849 123.054 46.0982 122.053 53.9531C121.608 57.9928 121.386 60.237 121.386 60.6859C121.386 62.1447 121.664 63.0985 122.22 63.5473C122.776 63.9962 123.861 64.2206 125.473 64.2206C125.696 64.2206 126.085 64.2206 126.641 64.2206C127.253 64.1645 127.725 64.1364 128.059 64.1364C128.393 64.1364 128.782 64.1364 129.227 64.1364C129.727 64.0803 130.089 64.0523 130.311 64.0523C132.202 64.0523 133.564 64.5011 134.398 65.3988C135.566 66.6332 136.15 67.8956 136.15 69.186C136.15 70.0837 135.928 70.8973 135.483 71.6266C134.371 73.8148 131.201 74.9089 125.974 74.9089C119.356 74.7966 114.546 72.356 111.543 67.587C110.82 66.4087 110.459 64.978 110.459 63.2948C110.459 61.5555 110.932 57.1792 111.877 50.166C112.433 46.519 112.767 42.3952 112.878 37.7945C112.878 32.0717 113.879 28.6211 115.881 27.4429Z" fill="#212529"/>
<path d="M229.582 44.3589C228.248 41.217 227.302 39.646 226.746 39.646C226.468 39.646 226.246 39.8985 226.079 40.4035C226.023 40.5157 225.912 40.8523 225.745 41.4134C225.579 41.9183 225.328 42.5916 224.995 43.4332C224.717 44.2748 224.439 45.0603 224.161 45.7897C223.16 48.6511 222.659 50.4465 222.659 51.1759C222.659 51.9614 223.271 52.3541 224.494 52.3541H224.995C229.277 52.1858 231.417 51.4283 231.417 50.0818C231.417 49.2402 230.806 47.3326 229.582 44.3589ZM222.993 24.329C224.327 22.9824 225.662 22.3092 226.997 22.3092C230.222 22.3092 233.225 26.3488 236.005 34.4281C236.784 36.6163 237.395 37.9909 237.84 38.5519C238.063 38.7764 239.119 41.6658 241.01 47.2204C242.623 52.1016 244.235 56.1132 245.848 59.2552C247.294 61.9483 248.017 64.1925 248.017 65.9879C248.017 67.8956 247.127 69.2982 245.347 70.1959C244.458 70.6448 243.707 70.8692 243.095 70.8692C241.205 70.8692 239.481 69.1299 237.924 65.6513C236.7 62.9582 235.866 61.4714 235.421 61.1908C235.31 61.1347 235.032 61.1067 234.587 61.1067C233.697 61.1067 232.502 61.247 231 61.5275C229.332 61.8641 226.552 62.2288 222.659 62.6216L217.988 63.0424L215.903 68.1761C213.623 73.955 211.259 76.8445 208.813 76.8445C207.7 76.8445 206.644 76.3676 205.643 75.4138C204.642 74.46 204.141 73.4781 204.141 72.4682C204.141 71.3461 205.393 67.6992 207.895 61.5275C210.231 55.5802 212.149 50.4184 213.651 46.0421C214.596 43.0685 215.486 40.5437 216.32 38.4678C217.209 36.3357 218.044 34.1476 218.822 31.9033C220.157 28.3125 221.547 25.7877 222.993 24.329Z" fill="#212529"/>
<path d="M274.769 54.1214C272.266 54.1214 270.348 54.0092 269.013 53.7848L267.178 53.364L267.512 60.0126C267.734 64.5011 267.929 66.9418 268.096 67.3345C268.263 67.8395 268.902 68.0919 270.014 68.0919C271.516 68.0919 273.267 67.7272 275.269 66.9979C277.327 66.2124 278.717 65.3427 279.44 64.3889C280.163 63.4351 280.635 61.9483 280.858 59.9285C280.969 59.0308 281.025 58.4416 281.025 58.1611C281.025 57.1512 280.663 56.2535 279.94 55.468C279.051 54.5703 277.327 54.1214 274.769 54.1214ZM273.1 32.7449C271.821 31.9594 270.348 31.5667 268.68 31.5667C267.79 31.5667 267.234 31.707 267.011 31.9875C266.733 32.268 266.594 34.3159 266.594 38.1311C266.594 41.8903 266.733 43.854 267.011 44.0223C267.067 44.0784 267.15 44.1065 267.262 44.1065C267.929 44.1065 268.985 43.5454 270.431 42.4233C271.877 41.245 272.934 40.1229 273.601 39.0569C274.491 37.5981 274.936 36.3918 274.936 35.438C274.936 34.372 274.324 33.4743 273.1 32.7449ZM262.674 23.2349C263.564 22.7861 265.371 22.5616 268.096 22.5616H269.681C271.905 22.6177 273.462 22.7861 274.352 23.0666C275.297 23.291 276.437 23.796 277.772 24.5815C279.829 25.8719 281.414 27.3307 282.526 28.9578C283.805 30.8654 284.445 32.9974 284.445 35.3539C284.445 37.3737 283.972 39.3374 283.027 41.245C282.137 43.0404 281.692 44.1626 281.692 44.6114C281.692 45.0042 282.415 45.6213 283.861 46.4629C285.14 47.1362 286.613 48.7633 288.282 51.3442C289.171 52.8591 289.755 54.0373 290.033 54.8789C290.311 55.7205 290.45 56.8707 290.45 58.3294C290.395 63.8279 288.893 68.148 285.946 71.29C282.999 74.3758 278.411 76.4518 272.183 77.5178C271.126 77.6861 270.098 77.7703 269.097 77.7703C266.483 77.7703 263.953 76.7323 261.506 74.6564L259.087 72.5524L258.67 65.0622C257.613 48.3986 257.085 37.8506 257.085 33.4182C257.085 32.0156 257.113 31.1178 257.169 30.7251C257.447 29.098 258.086 27.5831 259.087 26.1805C260.088 24.7778 261.284 23.796 262.674 23.2349Z" fill="#212529"/>
<path d="M304.7 27.4429C305.423 26.994 306.202 26.7696 307.036 26.7696C307.814 26.7696 308.788 27.1062 309.955 27.7795C311.179 28.4528 311.902 29.07 312.124 29.631C312.291 30.0799 312.374 31.174 312.374 32.9132C312.374 39.0849 311.874 46.0982 310.873 53.9531C310.428 57.9928 310.206 60.237 310.206 60.6859C310.206 62.1447 310.484 63.0985 311.04 63.5473C311.596 63.9962 312.68 64.2206 314.293 64.2206C314.515 64.2206 314.904 64.2206 315.461 64.2206C316.072 64.1645 316.545 64.1364 316.879 64.1364C317.212 64.1364 317.601 64.1364 318.046 64.1364C318.547 64.0803 318.908 64.0523 319.131 64.0523C321.021 64.0523 322.384 64.5011 323.218 65.3988C324.386 66.6332 324.97 67.8956 324.97 69.186C324.97 70.0837 324.747 70.8973 324.302 71.6266C323.19 73.8148 320.02 74.9089 314.793 74.9089C308.176 74.7966 303.366 72.356 300.363 67.587C299.64 66.4087 299.278 64.978 299.278 63.2948C299.278 61.5555 299.751 57.1792 300.696 50.166C301.253 46.519 301.586 42.3952 301.697 37.7945C301.697 32.0717 302.698 28.6211 304.7 27.4429Z" fill="#212529"/>
<path d="M347.242 17.5121C350.134 16.8949 352.692 16.5863 354.916 16.5863C357.141 16.5863 358.642 16.8668 359.421 17.4279C360.644 18.3256 361.256 19.5319 361.256 21.0468C361.256 21.9445 361.061 22.758 360.672 23.4874C360.06 24.5534 359.42 25.2547 358.753 25.5914C358.086 25.928 356.64 26.2085 354.416 26.433C351.302 26.8818 349.077 27.2185 347.743 27.4429L344.406 28.1162L344.573 33.4182L344.656 38.6361L348.744 38.5519C351.58 38.3275 353.359 37.9348 354.082 37.3737C354.861 36.8126 355.806 36.5321 356.918 36.5321C358.253 36.5321 359.448 36.9529 360.505 37.7945C361.617 38.6361 362.173 39.6741 362.173 40.9084C362.173 42.0305 361.617 43.2649 360.505 44.6114C359.448 45.958 358.253 46.8276 356.918 47.2204C356.028 47.5009 353.915 47.9217 350.579 48.4828C347.298 48.9877 345.185 49.2402 344.239 49.2402C343.961 49.2402 343.822 49.7732 343.822 50.8392C343.822 53.5884 344.323 56.1974 345.324 58.6661C345.769 59.7882 346.158 60.5456 346.491 60.9384C346.881 61.275 347.437 61.4433 348.16 61.4433C349.828 61.4433 352.025 60.9664 354.749 60.0126C357.53 59.0588 359.365 58.1331 360.255 57.2354C361.422 56.1132 362.729 55.5522 364.175 55.5522C365.621 55.5522 366.816 56.1132 367.762 57.2354C368.707 58.3575 369.18 59.3955 369.18 60.3493C369.18 61.0786 368.874 62.2008 368.262 63.7156C367.706 65.1183 366.538 66.2685 364.759 67.1662C363.035 68.0078 360.032 68.9896 355.75 70.1118C351.969 71.0656 349.022 71.5425 346.909 71.5425C343.294 71.5425 340.402 69.9434 338.234 66.7454C337.288 65.3988 336.371 63.2107 335.481 60.1809C334.591 57.1512 334.091 54.6825 333.98 52.7749V50.9234C333.98 46.6032 334.146 40.7962 334.48 33.5024C334.869 26.2085 335.175 22.1969 335.398 21.4676C336.176 19.4477 338.039 18.4378 340.986 18.4378C342.599 18.3256 344.684 18.017 347.242 17.5121Z" fill="#212529"/>
<path d="M192.83 32.4639H191.931C184.139 32.4639 176.847 29.4672 171.354 23.9733C169.655 22.2752 166.958 22.0754 165.061 23.374C156.27 28.6681 148.879 36.0599 143.584 44.8501C142.286 47.0477 142.885 49.8446 144.883 51.4428C147.18 53.2408 150.677 52.5416 152.175 50.0443C155.072 45.2497 158.668 40.9544 162.863 37.2585V49.2452C159.667 60.233 155.172 70.8213 149.478 80.8102L148.479 82.5083C147.081 84.9056 147.98 88.0022 150.377 89.3007C151.176 89.7003 151.975 90 152.874 90C154.572 90 156.27 89.101 157.169 87.5027L158.168 85.8046C162.863 77.5138 166.759 68.9234 169.855 60.1331C175.849 67.9245 180.344 76.7147 183.041 86.3041C183.74 88.9012 186.637 90.4994 189.234 89.7003C191.831 89.0011 193.429 86.1043 192.63 83.5072C188.834 70.122 181.842 58.6348 172.852 48.0466V37.4583C178.645 40.7547 185.138 42.4528 191.931 42.4528C194.528 42.4528 197.025 41.354 197.624 38.5571C198.423 35.4605 195.926 32.4639 192.83 32.4639Z" fill="#212529"/>
<path d="M167.857 19.9778C173.374 19.9778 177.846 15.5056 177.846 9.9889C177.846 4.47219 173.374 0 167.857 0C162.341 0 157.868 4.47219 157.868 9.9889C157.868 15.5056 162.341 19.9778 167.857 19.9778Z" fill="#212529"/>
</svg>
