<svg width="56" height="90" viewBox="0 0 56 90" fill="none" xmlns="http://www.w3.org/2000/svg">
<path d="M50.8297 32.4639H49.9307C42.1393 32.4639 34.8474 29.4672 29.3536 23.9733C27.6554 22.2752 24.9584 22.0754 23.0605 23.374C14.2703 28.6681 6.87851 36.0599 1.58439 44.8501C0.285836 47.0477 0.88517 49.8446 2.88295 51.4428C5.1804 53.2408 8.67652 52.5416 10.1749 50.0443C13.0716 45.2497 16.6676 40.9544 20.863 37.2585V49.2452C17.6665 60.233 13.1715 70.8213 7.47785 80.8102L6.47896 82.5083C5.08051 84.9056 5.97951 88.0022 8.37685 89.3007C9.17596 89.7003 9.97507 90 10.8741 90C12.5722 90 14.2703 89.101 15.1693 87.5027L16.1682 85.8046C20.863 77.5138 24.7587 68.9234 27.8552 60.1331C33.8486 67.9245 38.3436 76.7147 41.0406 86.3041C41.7398 88.9012 44.6366 90.4994 47.2337 89.7003C49.8308 89.0011 51.429 86.1043 50.6299 83.5072C46.8341 70.122 39.8419 58.6348 30.8519 48.0466V37.4583C36.6455 40.7547 43.1382 42.4528 49.9307 42.4528C52.5278 42.4528 55.025 41.354 55.6244 38.5571C56.4235 35.4605 53.9263 32.4639 50.8297 32.4639Z" fill="#212529"/>
<path d="M25.8574 19.9778C31.3741 19.9778 35.8463 15.5056 35.8463 9.9889C35.8463 4.47219 31.3741 0 25.8574 0C20.3407 0 15.8685 4.47219 15.8685 9.9889C15.8685 15.5056 20.3407 19.9778 25.8574 19.9778Z" fill="#212529"/>
</svg>
