<svg width="153" height="234" viewBox="0 0 153 234" fill="none" xmlns="http://www.w3.org/2000/svg">
<path d="M133.859 233.228H114.095C113.685 233.225 113.29 233.076 112.981 232.808L109.849 230.142C109.763 230.068 109.661 230.018 109.55 229.996C109.44 229.973 109.326 229.979 109.219 230.014C109.111 230.048 109.015 230.11 108.938 230.192C108.862 230.275 108.808 230.376 108.781 230.485L108.274 232.593C108.23 232.775 108.127 232.937 107.979 233.053C107.832 233.169 107.651 233.231 107.463 233.231H99.4961C99.3732 233.232 99.2518 233.205 99.1406 233.152C99.0294 233.1 98.9312 233.024 98.8528 232.929C98.7745 232.835 98.718 232.724 98.6875 232.605C98.6569 232.486 98.653 232.362 98.6761 232.241L101.106 219.535H121.226L133.859 233.228Z" fill="#59221D"/>
<path d="M20.8131 220.495L8.78846 204.58C8.6161 204.351 8.53095 204.069 8.54832 203.783L8.81692 199.427C8.82372 199.321 8.80312 199.215 8.75712 199.119C8.71111 199.023 8.64123 198.941 8.55422 198.88C8.4672 198.819 8.36598 198.782 8.26027 198.771C8.15456 198.761 8.04794 198.778 7.95065 198.82L6.03133 199.656C5.82449 199.746 5.59331 199.764 5.37513 199.706C5.15695 199.649 4.9645 199.52 4.82887 199.339L0.204013 193.217C0.11655 193.102 0.0550587 192.969 0.0237562 192.828C-0.0075462 192.687 -0.00791893 192.541 0.0226651 192.399C0.0532492 192.258 0.114064 192.125 0.20094 192.009C0.287816 191.894 0.398697 191.798 0.525973 191.729L12.1433 185.442L24.6891 202.123L20.8131 220.495Z" fill="#59221D"/>
<path d="M152.275 56.2624L150.51 74.0386C150.077 77.9939 148.143 81.6329 145.107 84.2071C142.071 86.7813 138.163 88.095 134.187 87.8781C130.212 87.6611 126.47 85.9299 123.733 83.0406C120.995 80.1513 119.47 76.3235 119.47 72.3445V63.0013C119.47 64.9522 118.695 66.8232 117.314 68.2027C115.934 69.5821 114.062 70.3571 112.109 70.3571H84.8566C83.21 70.3571 81.6308 69.7036 80.4663 68.5401C79.3018 67.3767 78.6474 65.7988 78.6469 64.1532V52.8796C78.6468 52.6837 78.5847 52.4929 78.4695 52.3345C78.3543 52.1761 78.1919 52.0581 78.0055 51.9976C77.8192 51.937 77.6184 51.9369 77.432 51.9973C77.2456 52.0577 77.0831 52.1755 76.9677 52.3338L35.8777 108.755C36.6496 99.8265 22.2023 93.7186 20.9056 95.5691L63.7193 34.4012C65.6995 31.5729 68.3333 29.2639 71.3972 27.6701C74.4611 26.0764 77.8645 25.245 81.3186 25.2464H86.4184C87.4588 25.2469 88.4766 24.9434 89.3466 24.3733C90.2167 23.8033 90.901 22.9915 91.3154 22.0378L92.0269 20.3829H103.731L104.461 22.0983C104.871 23.0607 105.556 23.8813 106.429 24.4578C107.303 25.0344 108.327 25.3414 109.374 25.3407H113.328C119.021 25.3407 124.481 27.6008 128.507 31.6239C132.533 35.647 134.794 41.1035 134.794 46.793V53.5088L149.432 53.1906C149.828 53.1821 150.221 53.2576 150.585 53.4122C150.949 53.5667 151.276 53.7968 151.545 54.0871C151.814 54.3775 152.018 54.7215 152.144 55.0965C152.269 55.4715 152.314 55.8688 152.275 56.2624Z" fill="#F3B304"/>
<path d="M119.468 63.0049V48.5333" stroke="#59221D" stroke-width="5" stroke-linecap="round" stroke-linejoin="round"/>
<path d="M132.432 57.4054L130.242 67.6107" stroke="#59221D" stroke-width="5" stroke-linecap="round" stroke-linejoin="round"/>
<path d="M114.472 70.7056H83.3767V75.2083H114.472V70.7056Z" fill="white" stroke="#59221D" stroke-width="5" stroke-linejoin="round"/>
<path d="M111.33 70.7056H86.5821V75.2083H111.33V70.7056Z" stroke="#59221D" stroke-width="5" stroke-linejoin="round"/>
<path d="M108.065 70.7056H89.7874V75.2083H108.065V70.7056Z" stroke="#59221D" stroke-width="5" stroke-linejoin="round"/>
<path d="M104.866 70.7056H93.0213V75.2083H104.866V70.7056Z" stroke="#59221D" stroke-width="5" stroke-linejoin="round"/>
<path d="M101.165 70.7056H96.7229V75.2083H101.165V70.7056Z" stroke="#59221D" stroke-width="5" stroke-linejoin="round"/>
<path d="M85.4632 75.2101H111.341C113.208 75.2095 115.005 75.9195 116.367 77.1957C117.728 78.472 118.552 80.2187 118.671 82.0806L126.653 206.514C126.731 207.733 126.558 208.956 126.145 210.106C125.731 211.256 125.087 212.309 124.25 213.2C123.414 214.091 122.403 214.801 121.281 215.287C120.159 215.772 118.95 216.023 117.727 216.022H102.991C100.736 216.023 98.5632 215.171 96.9093 213.638C95.2554 212.105 94.2421 210.004 94.0725 207.757L88.9407 139.713C88.9407 139.713 76.6244 182.568 34.0704 201.218C32.7206 201.809 31.2105 201.926 29.786 201.549C28.3614 201.172 27.1066 200.325 26.2259 199.144L15.2988 184.507C14.4337 183.349 14.0527 181.901 14.2362 180.468C14.4198 179.034 15.1535 177.729 16.2825 176.826C25.8399 169.182 48.8077 149.23 57.3583 127.648C65.2188 107.812 73.0277 89.6515 76.8716 80.822C77.6016 79.1524 78.8034 77.732 80.3296 76.7351C81.8558 75.7382 83.6399 75.2082 85.4632 75.2101Z" fill="white" stroke="#59221D" stroke-width="5" stroke-linejoin="round"/>
<path d="M120.79 216.022H101.542V219.743H120.79V216.022Z" fill="white" stroke="#59221D" stroke-width="5" stroke-linejoin="round"/>
<path d="M117.83 216.022V219.743" stroke="#59221D" stroke-width="5" stroke-linejoin="round"/>
<path d="M114.55 216.022V219.743" stroke="#59221D" stroke-width="5" stroke-linejoin="round"/>
<path d="M111.272 216.022V219.743" stroke="#59221D" stroke-width="5" stroke-linejoin="round"/>
<path d="M107.993 216.022V219.743" stroke="#59221D" stroke-width="5" stroke-linejoin="round"/>
<path d="M104.715 216.022V219.743" stroke="#59221D" stroke-width="5" stroke-linejoin="round"/>
<path d="M26.9186 200.035L14.7961 183.988L11.856 186.206L23.9785 202.253L26.9186 200.035Z" fill="white" stroke="#59221D" stroke-width="5" stroke-linejoin="round"/>
<path d="M13.7833 188.761L16.7219 186.542" stroke="#59221D" stroke-width="5" stroke-linejoin="round"/>
<path d="M15.8983 191.509L18.8386 189.291" stroke="#59221D" stroke-width="5" stroke-linejoin="round"/>
<path d="M18.0132 194.257L20.9536 192.039" stroke="#59221D" stroke-width="5" stroke-linejoin="round"/>
<path d="M20.13 197.005L23.0686 194.787" stroke="#59221D" stroke-width="5" stroke-linejoin="round"/>
<path d="M22.0333 199.752L24.9719 197.535" stroke="#59221D" stroke-width="5" stroke-linejoin="round"/>
<path d="M88.9407 139.713C93.434 131.015 101.294 105.76 105.224 105.76" stroke="#59221D" stroke-width="5" stroke-linecap="round" stroke-linejoin="round"/>
<path d="M114.472 25.3709L79.5363 101.416" stroke="#59221D" stroke-width="5" stroke-linecap="round" stroke-linejoin="round"/>
<path d="M74.9737 112H64.2814L67.8781 103.163H78.2075C78.44 103.164 78.6687 103.222 78.8736 103.332C79.0784 103.442 79.2533 103.6 79.3828 103.793C79.5123 103.986 79.5926 104.208 79.6165 104.439C79.6405 104.67 79.6075 104.903 79.5203 105.119L77.3733 110.393C77.178 110.868 76.8456 111.275 76.4183 111.561C75.991 111.847 75.4881 112 74.9737 112Z" fill="#F5BBBB"/>
<path d="M74.2035 110.254H64.4753L68.072 101.416H79.5398L76.6013 108.64C76.4072 109.117 76.0756 109.525 75.6485 109.812C75.2214 110.1 74.7184 110.253 74.2035 110.254Z" stroke="#59221D" stroke-width="5" stroke-linecap="round" stroke-linejoin="round"/>
<path d="M66.6898 104.774H78.1559" stroke="#59221D" stroke-width="5" stroke-linecap="round" stroke-linejoin="round"/>
<path d="M35.883 108.757C35.883 108.757 30.0895 114.111 20.9091 112.641C11.7288 111.171 8.51097 101.281 9.56402 98.1946C10.6171 95.1087 14.1889 96.7903 14.1889 99.5972C14.1889 99.5972 19.6124 97.4249 20.9074 95.5744C22.2023 93.7239 36.655 99.8265 35.883 108.757Z" fill="#A74602"/>
<path d="M10.071 102.118C10.071 102.118 10.8963 105.952 18.1965 103.222" stroke="#59221D" stroke-width="5" stroke-linecap="round" stroke-linejoin="round"/>
<path d="M12.3994 106.775C12.3994 106.775 14.0288 110.261 20.7348 107.664" stroke="#59221D" stroke-width="5" stroke-linecap="round" stroke-linejoin="round"/>
<path d="M18.0916 111.441C19.2211 111.655 21.6705 112.024 24.3298 110.832" stroke="#59221D" stroke-width="5" stroke-linecap="round" stroke-linejoin="round"/>
<path d="M133.423 56.5173L142.744 56.5092C143.47 56.5086 144.058 55.9199 144.057 55.1944L144.042 37.468C144.041 36.7425 143.452 36.1548 142.726 36.1555L133.405 36.1636C132.679 36.1642 132.091 36.7529 132.092 37.4784L132.107 55.2048C132.108 55.9303 132.697 56.518 133.423 56.5173Z" fill="#59221D"/>
<path d="M150.647 53.2848C147.491 60.054 141.799 61.3339 137.306 60.4166L133.583 59.6558C132.491 59.3386 131.536 58.6648 130.872 57.742C130.207 56.8192 129.871 55.7007 129.917 54.5647L130.378 43.2875C130.396 42.8347 130.582 42.4049 130.901 42.0823C131.219 41.7598 131.647 41.5676 132.1 41.5436V42.6635C132.1 43.3863 132.384 44.08 132.891 44.596C133.397 45.112 134.086 45.4093 134.809 45.4242L141.227 45.5557H141.283C142.81 45.5557 144.049 43.9097 144.049 42.3773L147.817 42.5178C148.93 42.5587 150.32 43.4457 150.453 44.7238L150.647 53.2848Z" fill="#A74602"/>
<path d="M130.997 45.5202C130.901 47.8578 133.601 48.7715 136.239 49.0754" stroke="#59221D" stroke-width="5" stroke-miterlimit="10" stroke-linecap="round"/>
<path d="M130.893 49.1323C130.797 51.4699 133.498 52.3854 136.136 52.6876" stroke="#59221D" stroke-width="5" stroke-miterlimit="10" stroke-linecap="round"/>
<path d="M130.609 52.8796C130.515 55.2171 133.213 56.0064 135.853 56.3086" stroke="#59221D" stroke-width="5" stroke-miterlimit="10" stroke-linecap="round"/>
<path d="M134.366 39.1741C134.749 39.1741 135.059 38.8637 135.059 38.4808C135.059 38.0979 134.749 37.7875 134.366 37.7875C133.983 37.7875 133.672 38.0979 133.672 38.4808C133.672 38.8637 133.983 39.1741 134.366 39.1741Z" fill="#98C8DB"/>
<path d="M134.572 39.1741C134.955 39.1741 135.266 38.8637 135.266 38.4808C135.266 38.0979 134.955 37.7875 134.572 37.7875C134.189 37.7875 133.878 38.0979 133.878 38.4808C133.878 38.8637 134.189 39.1741 134.572 39.1741Z" fill="#98C8DB"/>
<path d="M82.0141 20.3829H111.656C111.656 20.3829 114.039 18.3937 112.851 15.6651C111.663 12.9364 105.948 11.621 105.882 6.93698C105.816 2.25295 101.435 -1.39117 96.1662 0.517992C91.2194 2.30806 93.0996 8.17598 90.4474 9.99448C87.7952 11.813 79.8618 12.4725 82.0141 20.3829Z" fill="#59221D"/>
<path d="M103.726 20.3847H92.0287L93.8538 14.3052H102.458L103.726 20.3847Z" fill="#A74602"/>
<path d="M103.731 20.3829H102.412C101.161 20.3827 99.9275 20.0902 98.8101 19.5288C97.6926 18.9673 96.7221 18.1525 95.9759 17.1494L93.8591 14.3052H102.463L103.731 20.3829Z" fill="#59221D"/>
<path d="M104.994 10.6486C104.539 13.7168 103.427 17.9369 100.768 17.9369C97.9557 17.9369 95.3853 15.8037 94.3447 14.8029H91.8971C91.2274 14.7853 90.591 14.5071 90.1235 14.0274C89.656 13.5478 89.3944 12.9047 89.3944 12.2352C89.3944 11.5656 89.656 10.9225 90.1235 10.4429C90.591 9.96327 91.2274 9.68501 91.8971 9.6674H93.8538C93.8538 9.6674 101.222 9.60163 103.434 5.43134C104.062 6.13282 104.528 6.96409 104.797 7.86591C105.067 8.76772 105.134 9.71787 104.994 10.6486Z" fill="#A74602"/>
<path d="M93.0088 12.5774C93.0088 12.3893 92.9717 12.2031 92.8997 12.0293C92.8276 11.8556 92.722 11.6978 92.5888 11.5649C92.4557 11.432 92.2976 11.3266 92.1237 11.2548C91.9497 11.183 91.7633 11.1461 91.5751 11.1464" stroke="#59221D" stroke-width="3" stroke-miterlimit="10" stroke-linecap="round"/>
<path d="M104.477 9.00612C104.477 9.00612 102.942 8.44794 102.043 9.6034C101.451 10.3642 101.186 12.9382 101.568 13.4804" stroke="#59221D" stroke-width="3" stroke-miterlimit="10" stroke-linecap="round"/>
<path d="M98.7579 11.5588C99.0123 11.5588 99.2186 11.277 99.2186 10.9295C99.2186 10.582 99.0123 10.3002 98.7579 10.3002C98.5034 10.3002 98.2972 10.582 98.2972 10.9295C98.2972 11.277 98.5034 11.5588 98.7579 11.5588Z" fill="#59221D"/>
<path d="M103.265 11.5588C103.52 11.5588 103.726 11.277 103.726 10.9295C103.726 10.582 103.52 10.3002 103.265 10.3002C103.011 10.3002 102.805 10.582 102.805 10.9295C102.805 11.277 103.011 11.5588 103.265 11.5588Z" fill="#59221D"/>
<path d="M101.608 14.9771C101.608 14.9771 100.133 15.2882 99.473 14.1861" stroke="#59221D" stroke-width="3" stroke-miterlimit="10" stroke-linecap="round"/>
</svg>
